# xmcd
#
# Track frame offsets:
# 150
# 16785
# 32315
# 49442
# 64398
# 83151
# 99824
# 115986
# 130994
# 151935
# 171045
# 187729
# 202645
# 221110
# 237869
#
# Disc length: 3399 seconds
#
# Revision: 1
# Processed by: cddbd v1.5.2PL0 Copyright (c) Steve Scherf et al.
# Submitted via: inCDius 2.0b9
#
DISCID=b80d450f
DTITLE=Guy E. Venable Jr. - The Essential Recordings
DYEAR=1900
DGENRE=
TTITLE0=Too Much Fun
TTITLE1=Roll Me Easy
TTITLE2=Hard Times Big City
TTITLE3=Living Beyond My Means
TTITLE4=Blues at Midnight
TTITLE5=Barbeque
TTITLE6=Sugar in my Coffee
TTITLE7=Heartache Avenue
TTITLE8=Play Guitar Play
TTITLE9=Uh Uh Baby
TTITLE10=Hoochie Coo
TTITLE11=Broken Down Ford
TTITLE12=I'm Aggreviated
TTITLE13=Dog Sky
TTITLE14=Sunday Morning
EXTD=Recorded at the Blues Attic 2004
EXTT0=
EXTT1=
EXTT2=
EXTT3=
EXTT4=
EXTT5=
EXTT6=
EXTT7=
EXTT8=
EXTT9=
EXTT10=
EXTT11=
EXTT12=
EXTT13=
EXTT14=
PLAYORDER=
